<svg xmlns="http://www.w3.org/2000/svg" viewBox="0 0 128 128">
    <path fill="#00599C" d="M117.5 33.5l-45-26c-5.3-3.1-11.7-3.1-17 0l-45 26c-5.3 3.1-8.5 8.6-8.5 14.7v52c0 6.1 3.2 11.7 8.5 14.7l45 26c5.3 3.1 11.7 3.1 17 0l45-26c5.3-3.1 8.5-8.6 8.5-14.7v-52c0-6-3.2-11.6-8.5-14.7zm-40 55.4c-3.1 4-8.1 6.4-13.5 6.4-9.5 0-17.2-7.8-17.2-17.3v-28c0-9.5 7.7-17.3 17.2-17.3 5.4 0 10.4 2.4 13.5 6.4l-9.1 8c-1.3-1.6-3-2.6-4.9-2.6-3.8 0-6.9 3.2-6.9 7.1v28c0 3.9 3.1 7.1 6.9 7.1 1.9 0 3.6-1 4.9-2.6l9.1 8z"/>
</svg>
