<svg xmlns="http://www.w3.org/2000/svg" viewBox="0 0 100 100">
    <path fill="#E76F00" d="M51.5 24.3c-.6-.7-2-1.3-3.6-1.5-.7-.1-1.3 0-1.8.2.8.2 1.4.6 1.8 1.1s.6 1.2.6 2c0 .9-.4 2.1-1.2 3.6-1.3 2.1-4.8 6-10.4 11.5-.5.4-1.2.5-2-.3-.5-.4-.7-1-.5-1.9.4-1.5 1-2.9 1.8-4.4 1.3-2.6 3.4-6.3 6.3-11.1 1.7-2.9 2.5-5.5 2.3-7.8-.1-2.2-1.4-4-3.5-5.3-2.5-1.5-6.6-2.3-12.3-2.3-.6 0-1.3.1-2 .1-.4 0-.6.4-.6.9s.4.9.8.9c5 .1 8.8.8 11.3 2 1.5.7 2.4 1.7 2.8 2.9.3 1.2.1 2.8-.8 4.6-2.8 4.8-4.8 8.4-6 10.8-1 2.2-1.8 4.2-2.3 5.8-.9 3.1-.3 5.4 1.7 6.8 2.2 1.5 5.5 1.5 10 0 .5-.2.8-.7.8-1.3s-.4-1.1-1-.9c-3.1 1-5.4 1-7-.2-1-.7-1.3-2-.8-4 .3-1.4.9-3.2 1.8-5.3 1.2-2.6 4.7-6.5 10.4-11.8.7-.6 1.1-1.4 1.1-2.4 0-.8-.3-1.6-.8-2.3zm1.6 15c-1.3 2.2-3.1 4.5-5.4 6.8-.5.5-.6 1.1-.3 1.6.3.5.9.8 1.4.6 2.5-2.3 4.4-4.5 5.8-6.6.9-1.3 1.4-2.5 1.4-3.6 0-2.3-2-3.7-5.9-4.2-.6-.1-.9 0-1.1.2s-.3.6.1 1c1.5.9 2.4 1.8 2.7 2.5.3 1 .1 2.1-1.1 4-.6 1.1-1.3 2.2-2.3 3.5-.5.6-1.3 1.1-2.4 1.4-1 .3-2.1.4-3.3.4-2.8.2-5.4-.1-7.7-1-.5-.2-1 0-1.2.5s0 .8.6 1c2.4.9 5.3 1.3 8.6 1.1 1.6-.1 3-.3 4.2-.7 1.5-.5 2.6-1.2 3.3-2.1.9-1.2 1.6-2.5 2.1-3.9 0 0 .1-.2.2-.4s0-.2 0-.2z"/>
    <path fill="#5382A1" d="M74.4 65c-2.4-.6-5.8-1-10.3-1.2-5.7-.3-13.6-.3-23.7.1-9 .3-15 .9-18.2 1.7-2.7.6-3.8 1.4-3.3 2.2C19 68 20.3 68.3 23 68.6c1.5.2 3.4.4 5.9.4h8.3c15.2.2 26 .3 32.5.5s8 .5 10.5 1.3c.7.2 1.2.6 1.5 1.1.7.9-.7 1.9-4 2.8C73.1 76 66 76.5 56.4 76.4h-3.6C44.3 76 39 75.6 36.9 75h-.3c-1.9-.3-2.3-.7-2.3-1.3v-.1c0-1.2 12.8-2 38.3-2.3.9 0 1.5-.2 1.9-.6.2-.2.3-.4.3-.7s-.2-.4-.5-.6c-1-.3-5.2-.6-12.8-.7h-.6c-11.6.4-16 .7-18.7.9-3.2.3-4.5.8-3.9 1.5C39.4 72 40.8 72.4 42.6 72.8h.3c3.2.6 7 .9 11.5 1.2h4.5c9 .4 16.4.5 22.3.5 2.4 0 4.1.2 5.1.7.3.1.6.3.8.5.5.5 0 1.5-1.5 2.8C81.1 82.2 71.9 83.3 58.1 84.1c-13.3.7-24 .8-32.3.3-4.1-.3-6.5-.7-7-1.4-.4-.5-.2-1 .6-1.5.5-.4 1.3-.7 2.3-.9v-.3c0 0 .1 0 .2-.1s.3-.1.4-.2c1-.4 2.8-.7 5.2-.9h.6c6.4-1.2 9.2-1.9 8.2-2.3-.1 0-.3-.1-.4-.2-.5 0-1.8-.1-3.9 0h-.3c-5.5 0-9.2.2-11 .7h-.1c-1.3.2-2 .6-2.1 1.201C18 80.5 21 82.2 26.5 83.501c5.2 1.1 11.4 1.7 18.6 1.8 11.8.2 20.8 0 27.1-1.1.5-.1.8-1 1-2.9.2-1.4.1-2.2-.1-3.3zM25.7 87.7c3.9 1.3 8.3 2.1 13 2.4-16.1 1.1-22.1.2-23.7-.8-.4-.5-.3-1 .2-1.5 2.1-1.4 9.1-1.8 20.8-1.5 8.9.2 16.2.7 21.8 1.4 3.7.4 6 1 6.8 1.7.7.5.8.9.3 1.3C52.7 94.7 36 94.7 25.7 87.7z"/>
</svg>