<svg xmlns="http://www.w3.org/2000/svg" viewBox="0 0 128 128">
    <path fill="#3776AB" d="M64 8.7c-26.6 0-30.8 11.6-30.8 11.6l-.1 12H64.2v8.5H31c-19.4 0-22.3 12.8-22.3 28.5s2.6 28 22.3 28h8.5v-12s0-13 13.3-13h21.4c17.5 0 19-12.7 19-27.4V28S95.4 8.7 64 8.7zm-14.2 16c2.8 0 5 2.2 5 5s-2.2 5-5 5-5-2.2-5-5 2.2-5 5-5z"/>
    <path fill="#FFD43B" d="M64.2 119.3c26.6 0 30.8-11.6 30.8-11.6l.1-12H64.2v-8.5H97c19.4 0 22.3-12.8 22.3-28.5s-2.6-28-22.3-28h-8.5v12s0 13-13.3 13H53.8C36.3 55.7 34.8 68.4 34.8 83v16.1s-2 19.3 29.4 20.2zm14.2-16c-2.8 0-5-2.2-5-5s2.2-5 5-5 5 2.2 5 5-2.2 5-5 5z"/>
</svg>
